<?xml version="1.0" encoding="utf-8"?>
<!-- Generator: Adobe Illustrator 24.0.1, SVG Export Plug-In . SVG Version: 6.00 Build 0)  -->
<svg version="1.1" id="Layer_1" xmlns="http://www.w3.org/2000/svg" xmlns:xlink="http://www.w3.org/1999/xlink" x="0px" y="0px"
	 viewBox="0 0 32.78 12.19" style="enable-background:new 0 0 32.78 12.19;" xml:space="preserve">
<g>
	<path d="M0,11.68c0-0.58,0.01-1.48,0.04-2.7c0.02-1.22,0.05-2.47,0.07-3.76c0.02-1.29,0.05-2.45,0.07-3.47
		C0.21,0.73,0.22,0.15,0.22,0c0.05,0,0.8,0,2.26,0s3.3,0,5.51,0c2.21,0,4.64,0,7.26,0c2.63,0,5.12,0,7.48,0c2.36,0,4.44,0,6.24,0
		c1.8,0,2.99,0,3.58,0c0.05,2.04,0.01,4.09-0.11,6.13c-0.12,2.04-0.01,4.06,0.33,6.06H32.7c-0.24,0-1.19,0-2.85,0
		c-1.65,0-3.65-0.02-5.99-0.07c-2.34-0.05-4.84-0.1-7.52-0.15c-2.68-0.05-5.18-0.08-7.52-0.11C6.5,11.84,4.5,11.8,2.85,11.75
		C1.19,11.71,0.24,11.68,0,11.68z"/>
</g>
</svg>
