<?xml version="1.0" encoding="utf-8"?>
<!-- Generator: Adobe Illustrator 24.0.1, SVG Export Plug-In . SVG Version: 6.00 Build 0)  -->
<svg version="1.1" id="Layer_1" xmlns="http://www.w3.org/2000/svg" xmlns:xlink="http://www.w3.org/1999/xlink" x="0px" y="0px"
	 viewBox="0 0 29.49 30.06" style="enable-background:new 0 0 29.49 30.06;" xml:space="preserve">
<g>
	<path d="M8.98,29.93c0-0.05-0.01-0.07-0.04-0.07c-0.03,0-0.04-0.05-0.04-0.15c-0.1-0.73-0.15-1.37-0.15-1.93
		c0-0.56,0.01-1.11,0.04-1.64c0.02-0.53,0.04-1.09,0.04-1.68s-0.03-1.31-0.07-2.19c0-0.39-0.01-0.72-0.04-0.99
		c-0.02-0.27-0.06-0.43-0.11-0.47H8.47c-0.29,0-0.83-0.02-1.61-0.07c-0.78-0.05-1.62-0.1-2.52-0.15c-0.9-0.05-1.74-0.12-2.52-0.22
		c-0.78-0.1-1.27-0.19-1.46-0.29c-0.05-0.05-0.07-0.1-0.07-0.15c0.05-0.53,0.06-1.31,0.04-2.34c-0.02-1.02-0.06-2.06-0.11-3.1
		c-0.05-1.05-0.1-1.98-0.15-2.81C0.02,10.85,0,10.37,0,10.22c0.15,0.05,0.68,0.04,1.61-0.04c0.92-0.07,1.93-0.15,3.03-0.22
		c1.1-0.07,2.1-0.16,3.03-0.26c0.92-0.1,1.46-0.17,1.61-0.22c0-0.53,0.01-1.18,0.04-1.93C9.33,6.8,9.37,5.91,9.42,4.89
		c0.05-0.68,0.1-1.33,0.15-1.93c0.05-0.61,0.1-1.16,0.15-1.64c0.05-0.29,0.08-0.52,0.11-0.69C9.84,0.45,9.88,0.24,9.93,0
		c0.29,0.19,0.94,0.32,1.93,0.36c1,0.05,2.07,0.05,3.21,0c1.14-0.05,2.24-0.08,3.29-0.11c1.05-0.02,1.76-0.01,2.15,0.04
		c0,0.54,0,1.27,0,2.19c0,0.93,0,1.86,0,2.81c0,0.95,0,1.8,0,2.56c0,0.75,0.05,1.25,0.15,1.5c0.58,0.05,1.27,0.07,2.04,0.07
		c0.78,0,1.58,0,2.41,0c0.83,0,1.63,0.01,2.41,0.04c0.78,0.02,1.43,0.09,1.97,0.18c-0.1,2.04-0.12,3.87-0.07,5.48
		c0.05,1.61-0.03,3.31-0.22,5.11c-0.15,0.1-0.63,0.16-1.46,0.18C26.91,20.43,26,20.44,25,20.44c-1,0-1.93,0.01-2.81,0.04
		c-0.88,0.02-1.44,0.11-1.68,0.26c0.05,0.44,0.05,1.07,0,1.9c-0.05,0.83-0.11,1.7-0.18,2.63c-0.07,0.93-0.15,1.8-0.22,2.63
		C20.04,28.71,20,29.3,20,29.64v0.15c0,0.15-0.56,0.23-1.68,0.26c-1.12,0.02-2.35,0.02-3.69,0c-1.34-0.02-2.59-0.06-3.76-0.11
		C9.71,29.88,9.08,29.88,8.98,29.93z"/>
</g>
</svg>
